# Blender v2.79 (sub 0) OBJ File: ''
# www.blender.org
mtllib rectangle.mtl
o Rectangle
v -30.000000 -4.000000 50.000000
v -30.000000 -4.000000 -50.000000
v 30.000000 -4.000000 50.000000
v 30.000000 -4.000000 -50.000000
v -30.000000 4.000000 -50.000000
v -30.000000 4.000000 50.000000
v 30.000000 4.000000 -50.000000
v 30.000000 4.000000 50.000000
vn 0.0000 -1.0000 0.0000
vn 0.0000 1.0000 0.0000
vn 0.0000 0.0000 1.0000
vn -1.0000 0.0000 0.0000
vn 1.0000 0.0000 0.0000
vn 0.0000 0.0000 -1.0000
usemtl None
s off
f 1//1 2//1 3//1
f 2//1 4//1 3//1
f 5//2 6//2 7//2
f 6//2 8//2 7//2
f 8//3 6//3 3//3
f 6//3 1//3 3//3
f 6//4 5//4 1//4
f 5//4 2//4 1//4
f 7//5 8//5 4//5
f 8//5 3//5 4//5
f 5//6 7//6 2//6
f 7//6 4//6 2//6
